<svg xmlns="http://www.w3.org/2000/svg" version="1.1" xmlns:xlink="http://www.w3.org/1999/xlink" xmlns:svgjs="http://svgjs.dev/svgjs" width="1440" height="560" preserveAspectRatio="none" viewBox="0 0 1440 560"><g mask="url(&quot;#SvgjsMask1000&quot;)" fill="none"><rect width="1440" height="560" x="0" y="0" fill="#0e2a47"></rect><path d="M1309.63 44.57L1349.32 44.57L1349.32 90.71L1309.63 90.71z" fill="#e73635"></path><path d="M642.05 114.85L680.52 114.85L680.52 137.24L642.05 137.24z" stroke="#037b0b"></path><path d="M1341.98 108.76L1345.01 108.76L1345.01 111.79L1341.98 111.79z" stroke="#e73635"></path><path d="M216.49 208.66 a53.29 53.29 0 1 0 106.58 0 a53.29 53.29 0 1 0 -106.58 0z" fill="#037b0b"></path><path d="M1038.75 551.31 a5.37 5.37 0 1 0 10.74 0 a5.37 5.37 0 1 0 -10.74 0z" stroke="#037b0b"></path><path d="M1338.17 3.36L1371.94 3.36L1371.94 37.13L1338.17 37.13z" fill="#e73635"></path><path d="M-29.37 312.21 a34.6 34.6 0 1 0 69.2 0 a34.6 34.6 0 1 0 -69.2 0z" fill="#d3b714"></path><path d="M950.95 1.75L982.74 1.75L982.74 33.54L950.95 33.54z" stroke="#e73635"></path><path d="M893.61 88.23L922.95 88.23L922.95 117.57L893.61 117.57z" stroke="#037b0b"></path><path d="M693.66 392.38a15.92 15.92 0 1 0-18.44 25.96z" stroke="#d3b714"></path><path d="M135.88 545.68 a48.84 48.84 0 1 0 97.68 0 a48.84 48.84 0 1 0 -97.68 0z" fill="#e73635"></path><path d="M928.8 471.06L955.19 471.06L955.19 497.45L928.8 497.45z" fill="#037b0b"></path><path d="M34.03 461.53L66.13 461.53L66.13 493.63L34.03 493.63z" fill="#e73635"></path><path d="M1011.93 454.65 a55.83 55.83 0 1 0 111.66 0 a55.83 55.83 0 1 0 -111.66 0z" fill="#e73635"></path><path d="M1203.54 282.85a9.71 9.71 0 1 0-3.94-19.02z" stroke="#037b0b"></path><path d="M113.16 147.39L136.57 147.39L136.57 170.8L113.16 170.8z" fill="#d3b714"></path><path d="M886.81 332.67L921.34 332.67L921.34 367.2L886.81 367.2z" stroke="#d3b714"></path><path d="M618.07 398.46L657.3 398.46L657.3 421.18L618.07 421.18z" fill="#037b0b"></path><path d="M666.92 170.79L722.78 170.79L722.78 226.65L666.92 226.65z" fill="#d3b714"></path><path d="M708.57 124.65a16.42 16.42 0 1 0-4.06-32.58z" stroke="#e73635"></path><path d="M1099.93 219.86 a34.12 34.12 0 1 0 68.24 0 a34.12 34.12 0 1 0 -68.24 0z" stroke="#e73635"></path><path d="M1317.16 460.57L1318.21 460.57L1318.21 504.43L1317.16 504.43z" stroke="#037b0b"></path><path d="M41.82 45.39L80.66 45.39L80.66 84.23L41.82 84.23z" stroke="#037b0b"></path><path d="M1375.32 142.89 a8.48 8.48 0 1 0 16.96 0 a8.48 8.48 0 1 0 -16.96 0z" stroke="#037b0b"></path><path d="M680.51 340.36L702.16 340.36L702.16 351.1L680.51 351.1z" stroke="#d3b714"></path><path d="M306.59 122.76 a4.46 4.46 0 1 0 8.92 0 a4.46 4.46 0 1 0 -8.92 0z" stroke="#d3b714"></path><path d="M177.44 239.18L185.38 239.18L185.38 258.26L177.44 258.26z" stroke="#e73635"></path><path d="M375.26 261.83a41.28 41.28 0 1 0 48.95 66.48z" fill="#037b0b"></path><path d="M1126.64 167.23L1156.75 167.23L1156.75 191.86L1126.64 191.86z" fill="#037b0b"></path><path d="M460.25 514.85L500.21 514.85L500.21 554.81L460.25 554.81z" fill="#037b0b"></path><path d="M766.45 216.24L803.21 216.24L803.21 253L766.45 253z" fill="#037b0b"></path><path d="M663.11 101.09L681.23 101.09L681.23 152.32L663.11 152.32z" fill="#e73635"></path><path d="M895.64 500.57 a41.32 41.32 0 1 0 82.64 0 a41.32 41.32 0 1 0 -82.64 0z" fill="#037b0b"></path></g><defs><mask id="SvgjsMask1000"><rect width="1440" height="560" fill="#ffffff"></rect></mask></defs></svg>