<svg xmlns="http://www.w3.org/2000/svg" version="1.1" xmlns:xlink="http://www.w3.org/1999/xlink" xmlns:svgjs="http://svgjs.dev/svgjs" width="1440" height="560" preserveAspectRatio="none" viewBox="0 0 1440 560"><g mask="url(&quot;#SvgjsMask1000&quot;)" fill="none"><rect width="1440" height="560" x="0" y="0" fill="#0e2a47"></rect><path d="M-88.31 386.37L-88.31 386.37" stroke="#132e65" stroke-width="1.5"></path><path d="M-88.31 386.37L39.35 348.41" stroke="#132e65" stroke-width="1.5"></path><path d="M-88.31 386.37L-44.49 560.59" stroke="#132e65" stroke-width="1.5"></path><path d="M-88.31 386.37L42.58 537.83" stroke="#132e65" stroke-width="1.5"></path><path d="M-88.31 386.37L-37.97 704.61" stroke="#132e65" stroke-width="1.5"></path><path d="M-88.31 386.37L241.57 353.72" stroke="#132e65" stroke-width="1.5"></path><path d="M-44.49 560.59L-44.49 560.59" stroke="#132e65" stroke-width="1.5"></path><path d="M-44.49 560.59L42.58 537.83" stroke="#132e65" stroke-width="1.5"></path><path d="M-44.49 560.59L-37.97 704.61" stroke="#132e65" stroke-width="1.5"></path><path d="M-44.49 560.59L101.57 712.27" stroke="#132e65" stroke-width="1.5"></path><path d="M-44.49 560.59L39.35 348.41" stroke="#132e65" stroke-width="1.5"></path><path d="M-37.97 704.61L-37.97 704.61" stroke="#132e65" stroke-width="1.5"></path><path d="M-37.97 704.61L101.57 712.27" stroke="#132e65" stroke-width="1.5"></path><path d="M39.35 348.41L39.35 348.41" stroke="#132e65" stroke-width="1.5"></path><path d="M39.35 348.41L42.58 537.83" stroke="#132e65" stroke-width="1.5"></path><path d="M39.35 348.41L241.57 353.72" stroke="#132e65" stroke-width="1.5"></path><path d="M42.58 537.83L42.58 537.83" stroke="#132e65" stroke-width="1.5"></path><path d="M42.58 537.83L101.57 712.27" stroke="#132e65" stroke-width="1.5"></path><path d="M42.58 537.83L-37.97 704.61" stroke="#132e65" stroke-width="1.5"></path><path d="M42.58 537.83L227 518.64" stroke="#132e65" stroke-width="1.5"></path><path d="M101.57 712.27L101.57 712.27" stroke="#132e65" stroke-width="1.5"></path><path d="M101.57 712.27L236.28 661.04" stroke="#132e65" stroke-width="1.5"></path><path d="M101.57 712.27L227 518.64" stroke="#132e65" stroke-width="1.5"></path><path d="M241.57 353.72L241.57 353.72" stroke="#132e65" stroke-width="1.5"></path><path d="M241.57 353.72L227 518.64" stroke="#132e65" stroke-width="1.5"></path><path d="M241.57 353.72L42.58 537.83" stroke="#132e65" stroke-width="1.5"></path><path d="M241.57 353.72L524.83 404.58" stroke="#132e65" stroke-width="1.5"></path><path d="M227 518.64L227 518.64" stroke="#132e65" stroke-width="1.5"></path><path d="M227 518.64L236.28 661.04" stroke="#132e65" stroke-width="1.5"></path><path d="M236.28 661.04L236.28 661.04" stroke="#132e65" stroke-width="1.5"></path><path d="M236.28 661.04L378.18 637.64" stroke="#132e65" stroke-width="1.5"></path><path d="M236.28 661.04L42.58 537.83" stroke="#132e65" stroke-width="1.5"></path><path d="M236.28 661.04L510.87 647.54" stroke="#132e65" stroke-width="1.5"></path><path d="M236.28 661.04L-37.97 704.61" stroke="#132e65" stroke-width="1.5"></path><path d="M378.18 637.64L378.18 637.64" stroke="#132e65" stroke-width="1.5"></path><path d="M378.18 637.64L510.87 647.54" stroke="#132e65" stroke-width="1.5"></path><path d="M378.18 637.64L227 518.64" stroke="#132e65" stroke-width="1.5"></path><path d="M524.83 404.58L524.83 404.58" stroke="#132e65" stroke-width="1.5"></path><path d="M524.83 404.58L546.64 515.2" stroke="#132e65" stroke-width="1.5"></path><path d="M524.83 404.58L694.2 365.92" stroke="#132e65" stroke-width="1.5"></path><path d="M524.83 404.58L649.85 531.75" stroke="#132e65" stroke-width="1.5"></path><path d="M524.83 404.58L510.87 647.54" stroke="#132e65" stroke-width="1.5"></path><path d="M524.83 404.58L378.18 637.64" stroke="#132e65" stroke-width="1.5"></path><path d="M546.64 515.2L546.64 515.2" stroke="#132e65" stroke-width="1.5"></path><path d="M546.64 515.2L649.85 531.75" stroke="#132e65" stroke-width="1.5"></path><path d="M546.64 515.2L510.87 647.54" stroke="#132e65" stroke-width="1.5"></path><path d="M546.64 515.2L672.76 664.28" stroke="#132e65" stroke-width="1.5"></path><path d="M546.64 515.2L378.18 637.64" stroke="#132e65" stroke-width="1.5"></path><path d="M546.64 515.2L694.2 365.92" stroke="#132e65" stroke-width="1.5"></path><path d="M510.87 647.54L510.87 647.54" stroke="#132e65" stroke-width="1.5"></path><path d="M510.87 647.54L672.76 664.28" stroke="#132e65" stroke-width="1.5"></path><path d="M510.87 647.54L649.85 531.75" stroke="#132e65" stroke-width="1.5"></path><path d="M694.2 365.92L694.2 365.92" stroke="#132e65" stroke-width="1.5"></path><path d="M694.2 365.92L852.16 369.94" stroke="#132e65" stroke-width="1.5"></path><path d="M649.85 531.75L649.85 531.75" stroke="#132e65" stroke-width="1.5"></path><path d="M649.85 531.75L672.76 664.28" stroke="#132e65" stroke-width="1.5"></path><path d="M649.85 531.75L694.2 365.92" stroke="#132e65" stroke-width="1.5"></path><path d="M649.85 531.75L828.49 540.09" stroke="#132e65" stroke-width="1.5"></path><path d="M672.76 664.28L672.76 664.28" stroke="#132e65" stroke-width="1.5"></path><path d="M672.76 664.28L853.95 707.15" stroke="#132e65" stroke-width="1.5"></path><path d="M855.35 197.26L855.35 197.26" stroke="#132e65" stroke-width="1.5"></path><path d="M855.35 197.26L983.5 245.77" stroke="#132e65" stroke-width="1.5"></path><path d="M855.35 197.26L852.16 369.94" stroke="#132e65" stroke-width="1.5"></path><path d="M855.35 197.26L1004.94 79.81" stroke="#132e65" stroke-width="1.5"></path><path d="M855.35 197.26L694.2 365.92" stroke="#132e65" stroke-width="1.5"></path><path d="M852.16 369.94L852.16 369.94" stroke="#132e65" stroke-width="1.5"></path><path d="M852.16 369.94L1005.2 404.88" stroke="#132e65" stroke-width="1.5"></path><path d="M852.16 369.94L828.49 540.09" stroke="#132e65" stroke-width="1.5"></path><path d="M852.16 369.94L983.5 245.77" stroke="#132e65" stroke-width="1.5"></path><path d="M852.16 369.94L961.48 539.42" stroke="#132e65" stroke-width="1.5"></path><path d="M828.49 540.09L828.49 540.09" stroke="#132e65" stroke-width="1.5"></path><path d="M828.49 540.09L961.48 539.42" stroke="#132e65" stroke-width="1.5"></path><path d="M828.49 540.09L853.95 707.15" stroke="#132e65" stroke-width="1.5"></path><path d="M853.95 707.15L853.95 707.15" stroke="#132e65" stroke-width="1.5"></path><path d="M853.95 707.15L966.82 655" stroke="#132e65" stroke-width="1.5"></path><path d="M853.95 707.15L961.48 539.42" stroke="#132e65" stroke-width="1.5"></path><path d="M853.95 707.15L649.85 531.75" stroke="#132e65" stroke-width="1.5"></path><path d="M853.95 707.15L1161.92 678.58" stroke="#132e65" stroke-width="1.5"></path><path d="M993.97 -45.05L993.97 -45.05" stroke="#132e65" stroke-width="1.5"></path><path d="M993.97 -45.05L1004.94 79.81" stroke="#132e65" stroke-width="1.5"></path><path d="M993.97 -45.05L1156.74 105.09" stroke="#132e65" stroke-width="1.5"></path><path d="M993.97 -45.05L855.35 197.26" stroke="#132e65" stroke-width="1.5"></path><path d="M993.97 -45.05L983.5 245.77" stroke="#132e65" stroke-width="1.5"></path><path d="M993.97 -45.05L1308.76 38.3" stroke="#132e65" stroke-width="1.5"></path><path d="M1004.94 79.81L1004.94 79.81" stroke="#132e65" stroke-width="1.5"></path><path d="M1004.94 79.81L1156.74 105.09" stroke="#132e65" stroke-width="1.5"></path><path d="M1004.94 79.81L983.5 245.77" stroke="#132e65" stroke-width="1.5"></path><path d="M983.5 245.77L983.5 245.77" stroke="#132e65" stroke-width="1.5"></path><path d="M983.5 245.77L1129.49 255.61" stroke="#132e65" stroke-width="1.5"></path><path d="M983.5 245.77L1005.2 404.88" stroke="#132e65" stroke-width="1.5"></path><path d="M983.5 245.77L1121.15 352.97" stroke="#132e65" stroke-width="1.5"></path><path d="M1005.2 404.88L1005.2 404.88" stroke="#132e65" stroke-width="1.5"></path><path d="M1005.2 404.88L1121.15 352.97" stroke="#132e65" stroke-width="1.5"></path><path d="M1005.2 404.88L961.48 539.42" stroke="#132e65" stroke-width="1.5"></path><path d="M1005.2 404.88L1129.49 255.61" stroke="#132e65" stroke-width="1.5"></path><path d="M1005.2 404.88L1149.52 552.46" stroke="#132e65" stroke-width="1.5"></path><path d="M961.48 539.42L961.48 539.42" stroke="#132e65" stroke-width="1.5"></path><path d="M961.48 539.42L966.82 655" stroke="#132e65" stroke-width="1.5"></path><path d="M966.82 655L966.82 655" stroke="#132e65" stroke-width="1.5"></path><path d="M966.82 655L828.49 540.09" stroke="#132e65" stroke-width="1.5"></path><path d="M966.82 655L1161.92 678.58" stroke="#132e65" stroke-width="1.5"></path><path d="M966.82 655L1149.52 552.46" stroke="#132e65" stroke-width="1.5"></path><path d="M966.82 655L1005.2 404.88" stroke="#132e65" stroke-width="1.5"></path><path d="M1156.74 105.09L1156.74 105.09" stroke="#132e65" stroke-width="1.5"></path><path d="M1156.74 105.09L1129.49 255.61" stroke="#132e65" stroke-width="1.5"></path><path d="M1129.49 255.61L1129.49 255.61" stroke="#132e65" stroke-width="1.5"></path><path d="M1129.49 255.61L1121.15 352.97" stroke="#132e65" stroke-width="1.5"></path><path d="M1129.49 255.61L1293.95 220.46" stroke="#132e65" stroke-width="1.5"></path><path d="M1121.15 352.97L1121.15 352.97" stroke="#132e65" stroke-width="1.5"></path><path d="M1149.52 552.46L1149.52 552.46" stroke="#132e65" stroke-width="1.5"></path><path d="M1149.52 552.46L1259.59 554.3" stroke="#132e65" stroke-width="1.5"></path><path d="M1161.92 678.58L1161.92 678.58" stroke="#132e65" stroke-width="1.5"></path><path d="M1161.92 678.58L1253.36 679.26" stroke="#132e65" stroke-width="1.5"></path><path d="M1161.92 678.58L1149.52 552.46" stroke="#132e65" stroke-width="1.5"></path><path d="M1161.92 678.58L1259.59 554.3" stroke="#132e65" stroke-width="1.5"></path><path d="M1161.92 678.58L961.48 539.42" stroke="#132e65" stroke-width="1.5"></path><path d="M1308.76 38.3L1308.76 38.3" stroke="#132e65" stroke-width="1.5"></path><path d="M1308.76 38.3L1427.56 91.66" stroke="#132e65" stroke-width="1.5"></path><path d="M1308.76 38.3L1156.74 105.09" stroke="#132e65" stroke-width="1.5"></path><path d="M1308.76 38.3L1293.95 220.46" stroke="#132e65" stroke-width="1.5"></path><path d="M1308.76 38.3L1426.35 -107.28" stroke="#132e65" stroke-width="1.5"></path><path d="M1308.76 38.3L1446.79 197.52" stroke="#132e65" stroke-width="1.5"></path><path d="M1308.76 38.3L1129.49 255.61" stroke="#132e65" stroke-width="1.5"></path><path d="M1293.95 220.46L1293.95 220.46" stroke="#132e65" stroke-width="1.5"></path><path d="M1293.95 220.46L1306.52 358.43" stroke="#132e65" stroke-width="1.5"></path><path d="M1293.95 220.46L1446.79 197.52" stroke="#132e65" stroke-width="1.5"></path><path d="M1293.95 220.46L1156.74 105.09" stroke="#132e65" stroke-width="1.5"></path><path d="M1293.95 220.46L1427.56 91.66" stroke="#132e65" stroke-width="1.5"></path><path d="M1306.52 358.43L1306.52 358.43" stroke="#132e65" stroke-width="1.5"></path><path d="M1306.52 358.43L1404.71 411.19" stroke="#132e65" stroke-width="1.5"></path><path d="M1306.52 358.43L1121.15 352.97" stroke="#132e65" stroke-width="1.5"></path><path d="M1259.59 554.3L1259.59 554.3" stroke="#132e65" stroke-width="1.5"></path><path d="M1259.59 554.3L1253.36 679.26" stroke="#132e65" stroke-width="1.5"></path><path d="M1253.36 679.26L1253.36 679.26" stroke="#132e65" stroke-width="1.5"></path><path d="M1253.36 679.26L1149.52 552.46" stroke="#132e65" stroke-width="1.5"></path><path d="M1253.36 679.26L1417.48 674.41" stroke="#132e65" stroke-width="1.5"></path><path d="M1253.36 679.26L1458.62 506.78" stroke="#132e65" stroke-width="1.5"></path><path d="M1426.35 -107.28L1426.35 -107.28" stroke="#132e65" stroke-width="1.5"></path><path d="M1426.35 -107.28L1603.28 -108.9" stroke="#132e65" stroke-width="1.5"></path><path d="M1426.35 -107.28L1427.56 91.66" stroke="#132e65" stroke-width="1.5"></path><path d="M1426.35 -107.28L1604.8 49.44" stroke="#132e65" stroke-width="1.5"></path><path d="M1426.35 -107.28L1446.79 197.52" stroke="#132e65" stroke-width="1.5"></path><path d="M1427.56 91.66L1427.56 91.66" stroke="#132e65" stroke-width="1.5"></path><path d="M1427.56 91.66L1446.79 197.52" stroke="#132e65" stroke-width="1.5"></path><path d="M1427.56 91.66L1604.8 49.44" stroke="#132e65" stroke-width="1.5"></path><path d="M1427.56 91.66L1601.38 190.23" stroke="#132e65" stroke-width="1.5"></path><path d="M1446.79 197.52L1446.79 197.52" stroke="#132e65" stroke-width="1.5"></path><path d="M1446.79 197.52L1601.38 190.23" stroke="#132e65" stroke-width="1.5"></path><path d="M1446.79 197.52L1306.52 358.43" stroke="#132e65" stroke-width="1.5"></path><path d="M1446.79 197.52L1604.8 49.44" stroke="#132e65" stroke-width="1.5"></path><path d="M1404.71 411.19L1404.71 411.19" stroke="#132e65" stroke-width="1.5"></path><path d="M1404.71 411.19L1458.62 506.78" stroke="#132e65" stroke-width="1.5"></path><path d="M1458.62 506.78L1458.62 506.78" stroke="#132e65" stroke-width="1.5"></path><path d="M1458.62 506.78L1561.25 513.08" stroke="#132e65" stroke-width="1.5"></path><path d="M1458.62 506.78L1547.42 390.77" stroke="#132e65" stroke-width="1.5"></path><path d="M1458.62 506.78L1417.48 674.41" stroke="#132e65" stroke-width="1.5"></path><path d="M1417.48 674.41L1417.48 674.41" stroke="#132e65" stroke-width="1.5"></path><path d="M1417.48 674.41L1563.65 691.71" stroke="#132e65" stroke-width="1.5"></path><path d="M1603.28 -108.9L1603.28 -108.9" stroke="#132e65" stroke-width="1.5"></path><path d="M1603.28 -108.9L1604.8 49.44" stroke="#132e65" stroke-width="1.5"></path><path d="M1603.28 -108.9L1427.56 91.66" stroke="#132e65" stroke-width="1.5"></path><path d="M1604.8 49.44L1604.8 49.44" stroke="#132e65" stroke-width="1.5"></path><path d="M1604.8 49.44L1601.38 190.23" stroke="#132e65" stroke-width="1.5"></path><path d="M1601.38 190.23L1601.38 190.23" stroke="#132e65" stroke-width="1.5"></path><path d="M1601.38 190.23L1547.42 390.77" stroke="#132e65" stroke-width="1.5"></path><path d="M1601.38 190.23L1404.71 411.19" stroke="#132e65" stroke-width="1.5"></path><path d="M1601.38 190.23L1603.28 -108.9" stroke="#132e65" stroke-width="1.5"></path><path d="M1547.42 390.77L1547.42 390.77" stroke="#132e65" stroke-width="1.5"></path><path d="M1547.42 390.77L1561.25 513.08" stroke="#132e65" stroke-width="1.5"></path><path d="M1547.42 390.77L1404.71 411.19" stroke="#132e65" stroke-width="1.5"></path><path d="M1561.25 513.08L1561.25 513.08" stroke="#132e65" stroke-width="1.5"></path><path d="M1563.65 691.71L1563.65 691.71" stroke="#132e65" stroke-width="1.5"></path><path d="M1563.65 691.71L1561.25 513.08" stroke="#132e65" stroke-width="1.5"></path><path d="M1563.65 691.71L1458.62 506.78" stroke="#132e65" stroke-width="1.5"></path><path d="M1563.65 691.71L1547.42 390.77" stroke="#132e65" stroke-width="1.5"></path><circle r="5" cx="-88.31" cy="386.37" fill="#132e65"></circle><circle r="5" cx="-44.49" cy="560.59" fill="#132e65"></circle><circle r="5" cx="-37.97" cy="704.61" fill="#132e65"></circle><circle r="5" cx="39.35" cy="348.41" fill="#132e65"></circle><circle r="5" cx="42.58" cy="537.83" fill="#132e65"></circle><circle r="5" cx="101.57" cy="712.27" fill="#132e65"></circle><circle r="5" cx="241.57" cy="353.72" fill="#132e65"></circle><circle r="5" cx="227" cy="518.64" fill="#132e65"></circle><circle r="5" cx="236.28" cy="661.04" fill="#132e65"></circle><circle r="5" cx="378.18" cy="637.64" fill="#132e65"></circle><circle r="5" cx="524.83" cy="404.58" fill="#132e65"></circle><circle r="5" cx="546.64" cy="515.2" fill="#132e65"></circle><circle r="5" cx="510.87" cy="647.54" fill="#132e65"></circle><circle r="5" cx="694.2" cy="365.92" fill="#132e65"></circle><circle r="5" cx="649.85" cy="531.75" fill="#132e65"></circle><circle r="5" cx="672.76" cy="664.28" fill="#132e65"></circle><circle r="5" cx="855.35" cy="197.26" fill="#132e65"></circle><circle r="5" cx="852.16" cy="369.94" fill="#132e65"></circle><circle r="5" cx="828.49" cy="540.09" fill="#132e65"></circle><circle r="5" cx="853.95" cy="707.15" fill="#132e65"></circle><circle r="5" cx="993.97" cy="-45.05" fill="#132e65"></circle><circle r="5" cx="1004.94" cy="79.81" fill="#132e65"></circle><circle r="5" cx="983.5" cy="245.77" fill="#132e65"></circle><circle r="5" cx="1005.2" cy="404.88" fill="#132e65"></circle><circle r="5" cx="961.48" cy="539.42" fill="#132e65"></circle><circle r="5" cx="966.82" cy="655" fill="#132e65"></circle><circle r="5" cx="1156.74" cy="105.09" fill="#132e65"></circle><circle r="5" cx="1129.49" cy="255.61" fill="#132e65"></circle><circle r="5" cx="1121.15" cy="352.97" fill="#132e65"></circle><circle r="5" cx="1149.52" cy="552.46" fill="#132e65"></circle><circle r="5" cx="1161.92" cy="678.58" fill="#132e65"></circle><circle r="5" cx="1308.76" cy="38.3" fill="#132e65"></circle><circle r="5" cx="1293.95" cy="220.46" fill="#132e65"></circle><circle r="5" cx="1306.52" cy="358.43" fill="#132e65"></circle><circle r="5" cx="1259.59" cy="554.3" fill="#132e65"></circle><circle r="5" cx="1253.36" cy="679.26" fill="#132e65"></circle><circle r="5" cx="1426.35" cy="-107.28" fill="#132e65"></circle><circle r="5" cx="1427.56" cy="91.66" fill="#132e65"></circle><circle r="5" cx="1446.79" cy="197.52" fill="#132e65"></circle><circle r="5" cx="1404.71" cy="411.19" fill="#132e65"></circle><circle r="5" cx="1458.62" cy="506.78" fill="#132e65"></circle><circle r="5" cx="1417.48" cy="674.41" fill="#132e65"></circle><circle r="5" cx="1603.28" cy="-108.9" fill="#132e65"></circle><circle r="5" cx="1604.8" cy="49.44" fill="#132e65"></circle><circle r="5" cx="1601.38" cy="190.23" fill="#132e65"></circle><circle r="5" cx="1547.42" cy="390.77" fill="#132e65"></circle><circle r="5" cx="1561.25" cy="513.08" fill="#132e65"></circle><circle r="5" cx="1563.65" cy="691.71" fill="#132e65"></circle><path d="M-50.95 540.07L-50.95 540.07" stroke="hsl(228.5, 77.2%, 51.5%)" stroke-width="1.5"></path><path d="M-50.95 540.07L53.83 520.12" stroke="hsl(228.5, 77.2%, 51.5%)" stroke-width="1.5"></path><path d="M-50.95 540.07L-89.73 653.34" stroke="hsl(228.5, 77.2%, 51.5%)" stroke-width="1.5"></path><path d="M-50.95 540.07L56.8 653.76" stroke="hsl(228.5, 77.2%, 51.5%)" stroke-width="1.5"></path><path d="M-50.95 540.07L258.68 560.53" stroke="hsl(228.5, 77.2%, 51.5%)" stroke-width="1.5"></path><path d="M-50.95 540.07L215.76 706.67" stroke="hsl(228.5, 77.2%, 51.5%)" stroke-width="1.5"></path><path d="M258.68 560.53L258.68 560.53" stroke="hsl(228.5, 77.2%, 51.5%)" stroke-width="1.5"></path><path d="M258.68 560.53L370.26 559.53" stroke="hsl(228.5, 77.2%, 51.5%)" stroke-width="1.5"></path><path d="M258.68 560.53L215.76 706.67" stroke="hsl(228.5, 77.2%, 51.5%)" stroke-width="1.5"></path><path d="M215.76 706.67L215.76 706.67" stroke="hsl(228.5, 77.2%, 51.5%)" stroke-width="1.5"></path><path d="M215.76 706.67L56.8 653.76" stroke="hsl(228.5, 77.2%, 51.5%)" stroke-width="1.5"></path><path d="M215.76 706.67L401.45 649.18" stroke="hsl(228.5, 77.2%, 51.5%)" stroke-width="1.5"></path><path d="M215.76 706.67L370.26 559.53" stroke="hsl(228.5, 77.2%, 51.5%)" stroke-width="1.5"></path><path d="M215.76 706.67L53.83 520.12" stroke="hsl(228.5, 77.2%, 51.5%)" stroke-width="1.5"></path><path d="M370.26 559.53L370.26 559.53" stroke="hsl(228.5, 77.2%, 51.5%)" stroke-width="1.5"></path><path d="M370.26 559.53L401.45 649.18" stroke="hsl(228.5, 77.2%, 51.5%)" stroke-width="1.5"></path><path d="M370.26 559.53L508.56 645.33" stroke="hsl(228.5, 77.2%, 51.5%)" stroke-width="1.5"></path><path d="M370.26 559.53L556.84 546.35" stroke="hsl(228.5, 77.2%, 51.5%)" stroke-width="1.5"></path><path d="M789.3 501.69L789.3 501.69" stroke="hsl(228.5, 77.2%, 51.5%)" stroke-width="1.5"></path><path d="M789.3 501.69L658.08 512.8" stroke="hsl(228.5, 77.2%, 51.5%)" stroke-width="1.5"></path><path d="M789.3 501.69L836.36 368.9" stroke="hsl(228.5, 77.2%, 51.5%)" stroke-width="1.5"></path><path d="M789.3 501.69L940.07 524.37" stroke="hsl(228.5, 77.2%, 51.5%)" stroke-width="1.5"></path><path d="M789.3 501.69L834.94 650.58" stroke="hsl(228.5, 77.2%, 51.5%)" stroke-width="1.5"></path><path d="M1157.64 233.69L1157.64 233.69" stroke="hsl(228.5, 77.2%, 51.5%)" stroke-width="1.5"></path><path d="M1157.64 233.69L1104.74 355.13" stroke="hsl(228.5, 77.2%, 51.5%)" stroke-width="1.5"></path><path d="M1157.64 233.69L1312.06 202.81" stroke="hsl(228.5, 77.2%, 51.5%)" stroke-width="1.5"></path><path d="M1157.64 233.69L969.81 258.57" stroke="hsl(228.5, 77.2%, 51.5%)" stroke-width="1.5"></path><path d="M1157.64 233.69L1263.54 391.83" stroke="hsl(228.5, 77.2%, 51.5%)" stroke-width="1.5"></path><path d="M1157.64 233.69L1002.53 361.86" stroke="hsl(228.5, 77.2%, 51.5%)" stroke-width="1.5"></path><path d="M1157.7 639.47L1157.7 639.47" stroke="hsl(228.5, 77.2%, 51.5%)" stroke-width="1.5"></path><path d="M1157.7 639.47L1241.59 699.9" stroke="hsl(228.5, 77.2%, 51.5%)" stroke-width="1.5"></path><path d="M1157.7 639.47L1145.83 495.95" stroke="hsl(228.5, 77.2%, 51.5%)" stroke-width="1.5"></path><path d="M1157.7 639.47L1003.46 637.69" stroke="hsl(228.5, 77.2%, 51.5%)" stroke-width="1.5"></path><path d="M1424.98 -80.32L1424.98 -80.32" stroke="hsl(228.5, 77.2%, 51.5%)" stroke-width="1.5"></path><path d="M1424.98 -80.32L1410.22 77.78" stroke="hsl(228.5, 77.2%, 51.5%)" stroke-width="1.5"></path><path d="M1424.98 -80.32L1582.34 -108.47" stroke="hsl(228.5, 77.2%, 51.5%)" stroke-width="1.5"></path><path d="M1424.98 -80.32L1252.45 -62.74" stroke="hsl(228.5, 77.2%, 51.5%)" stroke-width="1.5"></path><path d="M1424.98 -80.32L1593.36 85.25" stroke="hsl(228.5, 77.2%, 51.5%)" stroke-width="1.5"></path><path d="M-89.73 653.34L-89.73 653.34" stroke="hsl(228.5, 77.2%, 51.5%)" stroke-width="1.5"></path><path d="M-89.73 653.34L56.8 653.76" stroke="hsl(228.5, 77.2%, 51.5%)" stroke-width="1.5"></path><path d="M53.83 520.12L53.83 520.12" stroke="hsl(228.5, 77.2%, 51.5%)" stroke-width="1.5"></path><path d="M53.83 520.12L56.8 653.76" stroke="hsl(228.5, 77.2%, 51.5%)" stroke-width="1.5"></path><path d="M56.8 653.76L56.8 653.76" stroke="hsl(228.5, 77.2%, 51.5%)" stroke-width="1.5"></path><path d="M56.8 653.76L258.68 560.53" stroke="hsl(228.5, 77.2%, 51.5%)" stroke-width="1.5"></path><path d="M56.8 653.76L370.26 559.53" stroke="hsl(228.5, 77.2%, 51.5%)" stroke-width="1.5"></path><path d="M401.45 649.18L401.45 649.18" stroke="hsl(228.5, 77.2%, 51.5%)" stroke-width="1.5"></path><path d="M401.45 649.18L508.56 645.33" stroke="hsl(228.5, 77.2%, 51.5%)" stroke-width="1.5"></path><path d="M401.45 649.18L258.68 560.53" stroke="hsl(228.5, 77.2%, 51.5%)" stroke-width="1.5"></path><path d="M401.45 649.18L556.84 546.35" stroke="hsl(228.5, 77.2%, 51.5%)" stroke-width="1.5"></path><path d="M556.84 546.35L556.84 546.35" stroke="hsl(228.5, 77.2%, 51.5%)" stroke-width="1.5"></path><path d="M556.84 546.35L658.08 512.8" stroke="hsl(228.5, 77.2%, 51.5%)" stroke-width="1.5"></path><path d="M556.84 546.35L508.56 645.33" stroke="hsl(228.5, 77.2%, 51.5%)" stroke-width="1.5"></path><path d="M508.56 645.33L508.56 645.33" stroke="hsl(228.5, 77.2%, 51.5%)" stroke-width="1.5"></path><path d="M508.56 645.33L658.08 512.8" stroke="hsl(228.5, 77.2%, 51.5%)" stroke-width="1.5"></path><path d="M508.56 645.33L258.68 560.53" stroke="hsl(228.5, 77.2%, 51.5%)" stroke-width="1.5"></path><path d="M508.56 645.33L215.76 706.67" stroke="hsl(228.5, 77.2%, 51.5%)" stroke-width="1.5"></path><path d="M658.08 512.8L658.08 512.8" stroke="hsl(228.5, 77.2%, 51.5%)" stroke-width="1.5"></path><path d="M658.08 512.8L834.94 650.58" stroke="hsl(228.5, 77.2%, 51.5%)" stroke-width="1.5"></path><path d="M658.08 512.8L836.36 368.9" stroke="hsl(228.5, 77.2%, 51.5%)" stroke-width="1.5"></path><path d="M658.08 512.8L940.07 524.37" stroke="hsl(228.5, 77.2%, 51.5%)" stroke-width="1.5"></path><path d="M836.36 368.9L836.36 368.9" stroke="hsl(228.5, 77.2%, 51.5%)" stroke-width="1.5"></path><path d="M836.36 368.9L1002.53 361.86" stroke="hsl(228.5, 77.2%, 51.5%)" stroke-width="1.5"></path><path d="M836.36 368.9L969.81 258.57" stroke="hsl(228.5, 77.2%, 51.5%)" stroke-width="1.5"></path><path d="M836.36 368.9L940.07 524.37" stroke="hsl(228.5, 77.2%, 51.5%)" stroke-width="1.5"></path><path d="M834.94 650.58L834.94 650.58" stroke="hsl(228.5, 77.2%, 51.5%)" stroke-width="1.5"></path><path d="M834.94 650.58L940.07 524.37" stroke="hsl(228.5, 77.2%, 51.5%)" stroke-width="1.5"></path><path d="M834.94 650.58L1003.46 637.69" stroke="hsl(228.5, 77.2%, 51.5%)" stroke-width="1.5"></path><path d="M834.94 650.58L836.36 368.9" stroke="hsl(228.5, 77.2%, 51.5%)" stroke-width="1.5"></path><path d="M969.81 258.57L969.81 258.57" stroke="hsl(228.5, 77.2%, 51.5%)" stroke-width="1.5"></path><path d="M969.81 258.57L1002.53 361.86" stroke="hsl(228.5, 77.2%, 51.5%)" stroke-width="1.5"></path><path d="M969.81 258.57L1104.74 355.13" stroke="hsl(228.5, 77.2%, 51.5%)" stroke-width="1.5"></path><path d="M1002.53 361.86L1002.53 361.86" stroke="hsl(228.5, 77.2%, 51.5%)" stroke-width="1.5"></path><path d="M1002.53 361.86L1104.74 355.13" stroke="hsl(228.5, 77.2%, 51.5%)" stroke-width="1.5"></path><path d="M940.07 524.37L940.07 524.37" stroke="hsl(228.5, 77.2%, 51.5%)" stroke-width="1.5"></path><path d="M940.07 524.37L1003.46 637.69" stroke="hsl(228.5, 77.2%, 51.5%)" stroke-width="1.5"></path><path d="M940.07 524.37L1002.53 361.86" stroke="hsl(228.5, 77.2%, 51.5%)" stroke-width="1.5"></path><path d="M940.07 524.37L1145.83 495.95" stroke="hsl(228.5, 77.2%, 51.5%)" stroke-width="1.5"></path><path d="M1003.46 637.69L1003.46 637.69" stroke="hsl(228.5, 77.2%, 51.5%)" stroke-width="1.5"></path><path d="M1104.74 355.13L1104.74 355.13" stroke="hsl(228.5, 77.2%, 51.5%)" stroke-width="1.5"></path><path d="M1104.74 355.13L1145.83 495.95" stroke="hsl(228.5, 77.2%, 51.5%)" stroke-width="1.5"></path><path d="M1104.74 355.13L1263.54 391.83" stroke="hsl(228.5, 77.2%, 51.5%)" stroke-width="1.5"></path><path d="M1104.74 355.13L940.07 524.37" stroke="hsl(228.5, 77.2%, 51.5%)" stroke-width="1.5"></path><path d="M1145.83 495.95L1145.83 495.95" stroke="hsl(228.5, 77.2%, 51.5%)" stroke-width="1.5"></path><path d="M1145.83 495.95L1263.54 391.83" stroke="hsl(228.5, 77.2%, 51.5%)" stroke-width="1.5"></path><path d="M1145.83 495.95L1303.94 558.76" stroke="hsl(228.5, 77.2%, 51.5%)" stroke-width="1.5"></path><path d="M1145.83 495.95L1002.53 361.86" stroke="hsl(228.5, 77.2%, 51.5%)" stroke-width="1.5"></path><path d="M1252.45 -62.74L1252.45 -62.74" stroke="hsl(228.5, 77.2%, 51.5%)" stroke-width="1.5"></path><path d="M1252.45 -62.74L1410.22 77.78" stroke="hsl(228.5, 77.2%, 51.5%)" stroke-width="1.5"></path><path d="M1252.45 -62.74L1312.06 202.81" stroke="hsl(228.5, 77.2%, 51.5%)" stroke-width="1.5"></path><path d="M1252.45 -62.74L1157.64 233.69" stroke="hsl(228.5, 77.2%, 51.5%)" stroke-width="1.5"></path><path d="M1312.06 202.81L1312.06 202.81" stroke="hsl(228.5, 77.2%, 51.5%)" stroke-width="1.5"></path><path d="M1312.06 202.81L1402.13 240" stroke="hsl(228.5, 77.2%, 51.5%)" stroke-width="1.5"></path><path d="M1312.06 202.81L1410.22 77.78" stroke="hsl(228.5, 77.2%, 51.5%)" stroke-width="1.5"></path><path d="M1263.54 391.83L1263.54 391.83" stroke="hsl(228.5, 77.2%, 51.5%)" stroke-width="1.5"></path><path d="M1303.94 558.76L1303.94 558.76" stroke="hsl(228.5, 77.2%, 51.5%)" stroke-width="1.5"></path><path d="M1303.94 558.76L1403.71 521.97" stroke="hsl(228.5, 77.2%, 51.5%)" stroke-width="1.5"></path><path d="M1303.94 558.76L1241.59 699.9" stroke="hsl(228.5, 77.2%, 51.5%)" stroke-width="1.5"></path><path d="M1303.94 558.76L1157.7 639.47" stroke="hsl(228.5, 77.2%, 51.5%)" stroke-width="1.5"></path><path d="M1303.94 558.76L1263.54 391.83" stroke="hsl(228.5, 77.2%, 51.5%)" stroke-width="1.5"></path><path d="M1303.94 558.76L1395.05 708.41" stroke="hsl(228.5, 77.2%, 51.5%)" stroke-width="1.5"></path><path d="M1241.59 699.9L1241.59 699.9" stroke="hsl(228.5, 77.2%, 51.5%)" stroke-width="1.5"></path><path d="M1241.59 699.9L1395.05 708.41" stroke="hsl(228.5, 77.2%, 51.5%)" stroke-width="1.5"></path><path d="M1410.22 77.78L1410.22 77.78" stroke="hsl(228.5, 77.2%, 51.5%)" stroke-width="1.5"></path><path d="M1402.13 240L1402.13 240" stroke="hsl(228.5, 77.2%, 51.5%)" stroke-width="1.5"></path><path d="M1402.13 240L1457.05 385.26" stroke="hsl(228.5, 77.2%, 51.5%)" stroke-width="1.5"></path><path d="M1457.05 385.26L1457.05 385.26" stroke="hsl(228.5, 77.2%, 51.5%)" stroke-width="1.5"></path><path d="M1457.05 385.26L1561.53 373.64" stroke="hsl(228.5, 77.2%, 51.5%)" stroke-width="1.5"></path><path d="M1457.05 385.26L1403.71 521.97" stroke="hsl(228.5, 77.2%, 51.5%)" stroke-width="1.5"></path><path d="M1403.71 521.97L1403.71 521.97" stroke="hsl(228.5, 77.2%, 51.5%)" stroke-width="1.5"></path><path d="M1403.71 521.97L1575.57 543.68" stroke="hsl(228.5, 77.2%, 51.5%)" stroke-width="1.5"></path><path d="M1403.71 521.97L1395.05 708.41" stroke="hsl(228.5, 77.2%, 51.5%)" stroke-width="1.5"></path><path d="M1403.71 521.97L1263.54 391.83" stroke="hsl(228.5, 77.2%, 51.5%)" stroke-width="1.5"></path><path d="M1403.71 521.97L1561.53 373.64" stroke="hsl(228.5, 77.2%, 51.5%)" stroke-width="1.5"></path><path d="M1395.05 708.41L1395.05 708.41" stroke="hsl(228.5, 77.2%, 51.5%)" stroke-width="1.5"></path><path d="M1395.05 708.41L1576.28 677.3" stroke="hsl(228.5, 77.2%, 51.5%)" stroke-width="1.5"></path><path d="M1582.34 -108.47L1582.34 -108.47" stroke="hsl(228.5, 77.2%, 51.5%)" stroke-width="1.5"></path><path d="M1582.34 -108.47L1593.36 85.25" stroke="hsl(228.5, 77.2%, 51.5%)" stroke-width="1.5"></path><path d="M1582.34 -108.47L1410.22 77.78" stroke="hsl(228.5, 77.2%, 51.5%)" stroke-width="1.5"></path><path d="M1593.36 85.25L1593.36 85.25" stroke="hsl(228.5, 77.2%, 51.5%)" stroke-width="1.5"></path><path d="M1593.36 85.25L1410.22 77.78" stroke="hsl(228.5, 77.2%, 51.5%)" stroke-width="1.5"></path><path d="M1561.53 373.64L1561.53 373.64" stroke="hsl(228.5, 77.2%, 51.5%)" stroke-width="1.5"></path><path d="M1561.53 373.64L1575.57 543.68" stroke="hsl(228.5, 77.2%, 51.5%)" stroke-width="1.5"></path><path d="M1561.53 373.64L1402.13 240" stroke="hsl(228.5, 77.2%, 51.5%)" stroke-width="1.5"></path><path d="M1561.53 373.64L1593.36 85.25" stroke="hsl(228.5, 77.2%, 51.5%)" stroke-width="1.5"></path><path d="M1575.57 543.68L1575.57 543.68" stroke="hsl(228.5, 77.2%, 51.5%)" stroke-width="1.5"></path><path d="M1575.57 543.68L1576.28 677.3" stroke="hsl(228.5, 77.2%, 51.5%)" stroke-width="1.5"></path><path d="M1576.28 677.3L1576.28 677.3" stroke="hsl(228.5, 77.2%, 51.5%)" stroke-width="1.5"></path><path d="M1576.28 677.3L1403.71 521.97" stroke="hsl(228.5, 77.2%, 51.5%)" stroke-width="1.5"></path><path d="M1576.28 677.3L1303.94 558.76" stroke="hsl(228.5, 77.2%, 51.5%)" stroke-width="1.5"></path><path d="M1576.28 677.3L1561.53 373.64" stroke="hsl(228.5, 77.2%, 51.5%)" stroke-width="1.5"></path><circle r="25" cx="-50.95" cy="540.07" fill="url(&quot;#SvgjsRadialGradient1001&quot;)"></circle><circle r="25" cx="258.68" cy="560.53" fill="url(&quot;#SvgjsRadialGradient1001&quot;)"></circle><circle r="25" cx="215.76" cy="706.67" fill="url(&quot;#SvgjsRadialGradient1001&quot;)"></circle><circle r="25" cx="370.26" cy="559.53" fill="url(&quot;#SvgjsRadialGradient1001&quot;)"></circle><circle r="25" cx="789.3" cy="501.69" fill="url(&quot;#SvgjsRadialGradient1001&quot;)"></circle><circle r="25" cx="1157.64" cy="233.69" fill="url(&quot;#SvgjsRadialGradient1001&quot;)"></circle><circle r="25" cx="1157.7" cy="639.47" fill="url(&quot;#SvgjsRadialGradient1001&quot;)"></circle><circle r="25" cx="1424.98" cy="-80.32" fill="url(&quot;#SvgjsRadialGradient1001&quot;)"></circle><circle r="5" cx="-89.73" cy="653.34" fill="#8b9ad9"></circle><circle r="5" cx="53.83" cy="520.12" fill="#8b9ad9"></circle><circle r="5" cx="56.8" cy="653.76" fill="#8b9ad9"></circle><circle r="5" cx="401.45" cy="649.18" fill="#8b9ad9"></circle><circle r="5" cx="556.84" cy="546.35" fill="#8b9ad9"></circle><circle r="5" cx="508.56" cy="645.33" fill="#8b9ad9"></circle><circle r="5" cx="658.08" cy="512.8" fill="#8b9ad9"></circle><circle r="5" cx="836.36" cy="368.9" fill="#8b9ad9"></circle><circle r="5" cx="834.94" cy="650.58" fill="#8b9ad9"></circle><circle r="5" cx="969.81" cy="258.57" fill="#8b9ad9"></circle><circle r="5" cx="1002.53" cy="361.86" fill="#8b9ad9"></circle><circle r="5" cx="940.07" cy="524.37" fill="#8b9ad9"></circle><circle r="5" cx="1003.46" cy="637.69" fill="#8b9ad9"></circle><circle r="5" cx="1104.74" cy="355.13" fill="#8b9ad9"></circle><circle r="5" cx="1145.83" cy="495.95" fill="#8b9ad9"></circle><circle r="5" cx="1252.45" cy="-62.74" fill="#8b9ad9"></circle><circle r="5" cx="1312.06" cy="202.81" fill="#8b9ad9"></circle><circle r="5" cx="1263.54" cy="391.83" fill="#8b9ad9"></circle><circle r="5" cx="1303.94" cy="558.76" fill="#8b9ad9"></circle><circle r="5" cx="1241.59" cy="699.9" fill="#8b9ad9"></circle><circle r="5" cx="1410.22" cy="77.78" fill="#8b9ad9"></circle><circle r="5" cx="1402.13" cy="240" fill="#8b9ad9"></circle><circle r="5" cx="1457.05" cy="385.26" fill="#8b9ad9"></circle><circle r="5" cx="1403.71" cy="521.97" fill="#8b9ad9"></circle><circle r="5" cx="1395.05" cy="708.41" fill="#8b9ad9"></circle><circle r="5" cx="1582.34" cy="-108.47" fill="#8b9ad9"></circle><circle r="5" cx="1593.36" cy="85.25" fill="#8b9ad9"></circle><circle r="5" cx="1561.53" cy="373.64" fill="#8b9ad9"></circle><circle r="5" cx="1575.57" cy="543.68" fill="#8b9ad9"></circle><circle r="5" cx="1576.28" cy="677.3" fill="#8b9ad9"></circle></g><defs><mask id="SvgjsMask1000"><rect width="1440" height="560" fill="#ffffff"></rect></mask><radialGradient id="SvgjsRadialGradient1001"><stop stop-color="#ffffff" offset="0.1"></stop><stop stop-color="#1735b3" offset="0.2"></stop><stop stop-color="rgba(23, 53, 179, 0)" offset="1"></stop></radialGradient></defs></svg>