<svg xmlns="http://www.w3.org/2000/svg" version="1.1" xmlns:xlink="http://www.w3.org/1999/xlink" xmlns:svgjs="http://svgjs.dev/svgjs" width="1440" height="560" preserveAspectRatio="none" viewBox="0 0 1440 560"><g mask="url(&quot;#SvgjsMask1000&quot;)" fill="none"><rect width="1440" height="560" x="0" y="0" fill="#0e2a47"></rect><path d="M0,626.749C115.289,624.053,187.867,504.899,289.705,450.789C404.005,390.058,558.917,394.878,634.351,289.699C711.894,181.58,705.319,32.977,683.49,-98.271C661.96,-227.725,620.778,-370.035,512.335,-443.941C406.842,-515.837,262.554,-441.967,138.012,-470.025C25.38,-495.4,-60.424,-598.927,-175.879,-598.988C-308.177,-599.058,-452.12,-566.668,-542.853,-470.385C-634.352,-373.289,-651.486,-227.157,-651.999,-93.743C-652.469,28.41,-610.963,145.968,-545.621,249.177C-485.97,343.396,-390.243,401.087,-298.544,464.543C-203.488,530.322,-115.564,629.451,0,626.749" fill="#0b2239"></path><path d="M1440 969.775C1520.098 950.658 1604.825 967.617 1679.078 932.012 1759.708 893.3489999999999 1838.496 840.258 1877.703 759.892 1917.283 678.763 1914.132 582.557 1892.2930000000001 494.97 1871.725 412.477 1819.982 342.818 1758.953 283.626 1701.714 228.11 1630.416 194.18400000000003 1555.118 167.945 1476.374 140.50599999999997 1396.619 126.743 1313.246 128.31400000000002 1205.21 130.35000000000002 1073.7350000000001 99.77800000000002 999.623 178.41199999999998 926.022 256.504 978.2860000000001 385.43899999999996 970.068 492.43399999999997 962.5029999999999 590.927 929.1859999999999 686.485 953.2429999999999 782.294 980.332 890.1759999999999 1010.494 1026.833 1114.292 1066.812 1222.192 1108.371 1327.532 996.6179999999999 1440 969.775" fill="#113255"></path></g><defs><mask id="SvgjsMask1000"><rect width="1440" height="560" fill="#ffffff"></rect></mask></defs></svg>