<?xml version="1.0" standalone="no"?>
<!DOCTYPE svg PUBLIC "-//W3C//DTD SVG 20010904//EN"
 "http://www.w3.org/TR/2001/REC-SVG-20010904/DTD/svg10.dtd">
<svg version="1.0" xmlns="http://www.w3.org/2000/svg"
 width="344.000000pt" height="393.000000pt" viewBox="0 0 344.000000 393.000000"
 preserveAspectRatio="xMidYMid meet">

<g transform="translate(0.000000,393.000000) scale(0.100000,-0.100000)"
fill="#000000" stroke="none">
<path d="M1991 3919 c-96 -19 -190 -84 -237 -165 -30 -50 -19 -48 -283 -63
-160 -10 -178 -13 -212 -35 -82 -55 -113 -123 -129 -284 -6 -58 -12 -107 -13
-108 -1 -1 -54 -16 -116 -33 -137 -38 -217 -78 -270 -136 -72 -78 -74 -156 -5
-226 50 -52 191 -116 287 -131 l77 -13 0 -95 c0 -63 6 -113 16 -144 16 -46 16
-48 -5 -62 -36 -26 -74 -101 -67 -134 4 -24 -3 -43 -33 -89 -21 -33 -53 -104
-72 -158 -31 -93 -33 -106 -34 -239 0 -139 0 -141 32 -201 48 -91 55 -149 58
-448 l2 -270 29 -5 c36 -7 35 -14 -16 -133 -81 -186 -194 -341 -284 -386 -26
-13 -89 -30 -139 -38 -265 -42 -342 -67 -397 -130 -46 -51 -38 -110 17 -131
55 -22 239 -32 366 -22 159 14 344 38 430 56 94 19 95 19 103 -23 12 -70 -8
-65 310 -64 234 2 292 5 304 16 9 8 29 55 45 105 16 49 32 90 37 90 4 0 19
-39 33 -88 14 -48 29 -94 34 -102 7 -13 54 -15 327 -15 l319 0 -3 60 c-5 111
-70 201 -172 237 -18 6 -30 17 -30 27 0 10 36 144 79 299 104 369 135 547 135
771 l-1 163 36 -6 c170 -31 238 -9 323 108 28 39 28 40 28 190 0 127 3 159 20
204 27 69 26 141 -1 175 l-20 26 22 73 c27 92 29 181 5 226 -13 25 -34 41 -80
62 -35 16 -70 40 -79 54 -9 13 -32 30 -52 36 -68 23 -105 -24 -136 -174 -24
-115 -24 -157 0 -204 20 -41 18 -57 -10 -72 -16 -9 -21 -5 -34 27 -9 21 -29
52 -46 69 l-30 30 28 60 c18 39 29 81 31 125 5 76 -4 98 -79 200 -27 36 -57
85 -67 110 l-19 44 48 69 c54 76 99 185 125 295 23 106 16 284 -16 366 -67
172 -316 294 -519 254z m217 -77 c69 -22 158 -79 203 -130 88 -100 109 -287
53 -482 -19 -66 -86 -204 -117 -243 l-23 -27 -39 19 c-31 15 -43 17 -55 8 -13
-10 -13 -10 -2 4 14 19 6 52 -11 42 -6 -4 -8 0 -4 10 3 10 2 17 -4 17 -6 0 -7
5 -4 10 12 19 68 10 103 -17 19 -14 33 -20 30 -12 -2 8 -20 24 -39 37 -25 18
-45 23 -76 20 -24 -2 -44 1 -44 7 -1 5 -2 15 -4 20 -1 6 -3 15 -3 21 -1 7 -16
11 -34 9 -110 -8 -185 -19 -195 -27 -7 -5 -21 -7 -32 -3 -12 4 -30 0 -43 -9
-27 -19 -50 -22 -24 -3 15 11 15 13 -10 15 -15 1 -34 -4 -42 -10 -9 -8 -13 -8
-9 -2 4 8 -10 11 -46 12 -32 0 -43 -3 -29 -7 22 -6 22 -6 2 -19 -12 -7 -20 -8
-20 -2 0 14 -37 12 -43 -2 -3 -8 -6 -6 -6 5 -1 11 -9 17 -23 17 -24 0 -372
-97 -399 -111 -14 -7 -30 -54 -71 -204 l-14 -50 -49 3 c-137 9 -273 58 -321
115 -32 38 -50 101 -38 135 12 36 141 101 250 126 43 10 107 27 142 38 l62 19
0 87 c1 95 18 200 41 246 8 16 30 42 49 57 34 26 44 28 259 48 154 14 227 24
232 33 30 54 77 101 130 134 108 65 207 80 317 46z m-77 -754 c-11 -18 -21
-29 -21 -25 0 13 33 67 38 62 3 -2 -5 -19 -17 -37z m-215 2 c0 -12 -4 -16 -9
-11 -5 5 -6 14 -3 20 10 15 12 14 12 -9z m-156 -14 c0 -2 -7 -7 -16 -10 -8 -3
-12 -2 -9 4 6 10 25 14 25 6z m90 -21 c0 -8 5 -15 11 -15 5 0 7 -5 3 -12 -6
-9 -9 -9 -12 1 -3 8 -7 9 -11 3 -4 -6 -12 -4 -21 6 -13 14 -12 15 4 9 14 -5
17 -3 12 8 -3 8 -1 15 4 15 6 0 10 -7 10 -15z m35 -5 c3 -6 -1 -7 -9 -4 -18 7
-21 14 -7 14 6 0 13 -4 16 -10z m-152 -14 c4 -10 1 -13 -8 -9 -8 3 -12 9 -9
14 7 12 11 11 17 -5z m412 -6 c3 -5 1 -10 -4 -10 -6 0 -11 5 -11 10 0 6 2 10
4 10 3 0 8 -4 11 -10z m-215 -10 c0 -5 -2 -10 -4 -10 -3 0 -8 5 -11 10 -3 6
-1 10 4 10 6 0 11 -4 11 -10z m262 -2 c-17 -17 -15 -31 4 -24 14 5 15 4 5 -8
-10 -12 -16 -13 -26 -3 -11 10 -10 15 2 30 9 9 19 17 22 17 3 0 0 -5 -7 -12z
m-412 -12 c0 -2 -6 -9 -14 -15 -11 -9 -16 -9 -22 0 -4 7 -3 9 4 5 6 -3 13 -2
17 4 6 10 15 14 15 6z m-60 -21 c0 -12 -19 -12 -23 0 -4 9 -1 12 9 8 7 -3 14
-7 14 -8z m186 -29 c13 -15 25 -46 29 -75 4 -28 11 -53 16 -57 20 -12 6 -23
-38 -30 -26 -4 -53 -13 -61 -21 -11 -11 -18 -10 -39 7 -17 13 -33 18 -47 14
-12 -4 -18 -3 -14 1 4 4 -4 22 -17 40 -25 32 -25 32 -5 55 11 12 22 31 25 40
3 10 20 28 38 40 40 25 83 20 113 -14z m397 -3 c4 -3 0 -15 -9 -25 -16 -17
-15 -19 10 -39 14 -11 26 -24 26 -28 0 -13 -39 -10 -51 5 -9 10 -9 14 0 14 7
0 5 9 -6 24 -10 13 -24 21 -30 19 -7 -3 -13 0 -13 7 0 6 5 8 10 5 6 -3 13 1
16 9 6 16 35 22 47 9z m-680 -23 c3 -11 1 -18 -4 -14 -5 3 -9 12 -9 20 0 20 7
17 13 -6z m97 10 c0 -5 -2 -10 -4 -10 -3 0 -8 5 -11 10 -3 6 -1 10 4 10 6 0
11 -4 11 -10z m514 -38 c3 -5 -1 -9 -9 -9 -8 0 -12 4 -9 9 3 4 7 8 9 8 2 0 6
-4 9 -8z m-236 -26 c-7 -8 -15 -12 -17 -11 -5 6 10 25 20 25 5 0 4 -6 -3 -14z
m-301 -28 c-3 -8 -6 -5 -6 6 -1 11 2 17 5 13 3 -3 4 -12 1 -19z m593 -20 c0
-6 -7 -5 -15 2 -8 7 -15 17 -15 22 0 6 7 5 15 -2 8 -7 15 -17 15 -22z m-640
12 c0 -5 -5 -10 -11 -10 -5 0 -7 5 -4 10 3 6 8 10 11 10 2 0 4 -4 4 -10z m742
-55 c10 -19 10 -19 -9 1 -11 11 -26 31 -32 45 l-12 24 21 -25 c11 -14 25 -34
32 -45z m-105 3 c-3 -8 -6 -5 -6 6 -1 11 2 17 5 13 3 -3 4 -12 1 -19z m79 -10
l19 -23 -25 20 c-14 11 -27 21 -29 22 -2 2 0 3 6 3 5 0 18 -10 29 -22z m-737
8 c-2 -2 -14 -9 -26 -15 -18 -9 -22 -9 -18 2 3 7 15 13 26 14 12 1 20 1 18 -1z
m178 -28 c-3 -8 -6 -5 -6 6 -1 11 2 17 5 13 3 -3 4 -12 1 -19z m-110 6 c-3 -3
-12 -4 -19 -1 -8 3 -5 6 6 6 11 1 17 -2 13 -5z m293 -29 c0 -5 -5 -3 -10 5 -5
8 -10 20 -10 25 0 6 5 3 10 -5 5 -8 10 -19 10 -25z m-284 -3 c-17 -16 -18 -16
-5 5 7 12 15 20 18 17 3 -2 -3 -12 -13 -22z m389 18 c3 -6 -1 -7 -9 -4 -18 7
-21 14 -7 14 6 0 13 -4 16 -10z m-450 -18 c-3 -3 -11 0 -18 7 -9 10 -8 11 6 5
10 -3 15 -9 12 -12z m647 -7 c3 -13 2 -22 -3 -20 -4 3 -9 2 -12 -2 -2 -5 -2
-2 0 5 1 8 3 20 3 28 0 22 7 16 12 -11z m92 -7 c7 -5 4 -8 -6 -8 -12 0 -18 7
-17 23 0 15 2 17 6 7 3 -8 11 -18 17 -22z m-614 12 c0 -5 -4 -10 -9 -10 -6 0
-13 5 -16 10 -3 6 1 10 9 10 9 0 16 -4 16 -10z m48 -25 c-3 -3 -9 2 -12 12 -6
14 -5 15 5 6 7 -7 10 -15 7 -18z m-233 5 c-3 -5 -12 -10 -18 -10 -7 0 -6 4 3
10 19 12 23 12 15 0z m405 -10 c0 -5 -2 -10 -4 -10 -3 0 -8 5 -11 10 -3 6 -1
10 4 10 6 0 11 -4 11 -10z m-157 -15 c-3 -9 -8 -14 -10 -11 -3 3 -2 9 2 15 9
16 15 13 8 -4z m-235 -16 c19 -30 11 -32 -11 -3 -10 13 -14 24 -10 24 5 0 14
-9 21 -21z m512 6 c5 3 14 -3 20 -14 7 -13 7 -22 0 -26 -6 -3 -10 4 -10 17 0
18 -2 20 -10 8 -5 -8 -10 -12 -10 -8 0 3 -2 12 -3 20 -2 7 -2 10 0 5 3 -4 9
-5 13 -2z m567 -17 c1 -30 1 -31 -6 -8 -7 21 -5 40 2 40 2 0 3 -15 4 -32z
m-297 2 c-8 -5 -17 -7 -19 -4 -3 3 1 9 9 14 8 5 17 7 19 4 3 -3 -1 -9 -9 -14z
m77 14 c-3 -3 -12 -4 -19 -1 -8 3 -5 6 6 6 11 1 17 -2 13 -5z m-642 -13 c3 -5
2 -12 -3 -15 -5 -3 -9 1 -9 9 0 17 3 19 12 6z m452 -23 c-3 -7 -5 -2 -5 12 0
14 2 19 5 13 2 -7 2 -19 0 -25z m-541 13 c-4 -5 -2 -11 4 -13 6 -2 1 -9 -11
-16 -17 -11 -20 -11 -13 0 5 7 9 16 10 21 3 15 4 17 10 17 3 0 3 -4 0 -9z
m291 -5 c-4 -10 4 -18 21 -24 l27 -10 -31 1 c-22 2 -31 6 -29 17 2 8 4 18 4
23 1 4 4 7 7 7 3 0 4 -6 1 -14z m723 -11 c14 -19 14 -19 -2 -6 -10 7 -18 18
-18 24 0 6 1 8 3 6 1 -2 9 -13 17 -24z m-1080 5 c0 -5 -2 -10 -4 -10 -3 0 -8
5 -11 10 -3 6 -1 10 4 10 6 0 11 -4 11 -10z m97 -22 c-3 -8 -6 -5 -6 6 -1 11
2 17 5 13 3 -3 4 -12 1 -19z m440 -10 c-3 -7 -5 -2 -5 12 0 14 2 19 5 13 2 -7
2 -19 0 -25z m273 17 c0 -8 -4 -15 -10 -15 -5 0 -7 7 -4 15 4 8 8 15 10 15 2
0 4 -7 4 -15z m-324 -14 c0 -11 -4 -17 -8 -15 -4 3 -8 0 -8 -7 0 -7 -3 -10 -6
-7 -5 5 12 48 19 48 2 0 3 -9 3 -19z m604 -6 c0 -2 -6 -5 -13 -8 -8 -3 -14 1
-14 8 0 7 6 11 14 8 7 -3 13 -6 13 -8z m25 5 c3 -5 1 -10 -4 -10 -6 0 -11 5
-11 10 0 6 2 10 4 10 3 0 8 -4 11 -10z m-1060 -20 c-6 -10 -45 -1 -45 10 0 4
11 5 25 2 14 -2 23 -8 20 -12z m367 13 c-6 -2 -10 -9 -7 -14 4 -5 -2 -6 -11
-2 -12 5 -15 3 -9 -6 6 -10 3 -11 -14 -2 -12 7 -27 9 -33 5 -7 -4 -8 -3 -4 5
4 6 15 9 24 7 10 -3 24 -1 32 4 8 5 20 9 25 9 6 0 4 -3 -3 -6z m-435 -25 c-3
-8 -6 -5 -6 6 -1 11 2 17 5 13 3 -3 4 -12 1 -19z m1188 1 c3 -4 0 -11 -6 -15
-8 -5 -9 -3 -4 6 6 10 1 12 -19 8 -24 -5 -33 1 -20 14 7 7 43 -2 49 -13z
m-1058 -11 c-3 -8 -6 -5 -6 6 -1 11 2 17 5 13 3 -3 4 -12 1 -19z m74 -20 c-10
-11 -11 -9 -5 6 5 12 4 17 -3 13 -5 -3 -10 1 -10 9 0 13 2 13 16 0 12 -13 13
-18 2 -28z m361 35 c-6 -3 -10 -9 -6 -14 3 -5 0 -9 -6 -9 -7 0 -8 -6 0 -19 12
-23 13 -31 2 -31 -4 0 -13 14 -19 30 -6 17 -7 28 -2 24 5 -3 9 -1 9 5 0 5 -6
11 -12 14 -7 2 1 4 17 4 17 0 24 -2 17 -4z m223 -3 c3 -6 -1 -7 -9 -4 -18 7
-21 14 -7 14 6 0 13 -4 16 -10z m-508 -57 c-3 -10 -5 -2 -5 17 0 19 2 27 5 18
2 -10 2 -26 0 -35z m462 38 c7 -5 9 -11 5 -14 -5 -3 -15 1 -22 9 -14 16 -5 18
17 5z m81 -23 c0 -36 -4 -35 -14 5 -4 16 -2 27 4 27 5 0 10 -14 10 -32z m-580
12 c0 -5 -5 -10 -11 -10 -5 0 -7 5 -4 10 3 6 8 10 11 10 2 0 4 -4 4 -10z m455
0 c3 -5 1 -10 -4 -10 -6 0 -11 5 -11 10 0 6 2 10 4 10 3 0 8 -4 11 -10z m526
-16 c13 -14 17 -23 9 -19 -13 5 -46 45 -37 45 2 0 14 -11 28 -26z m-16 -33
c-2 -2 -11 3 -19 12 -8 8 -12 17 -9 21 3 3 12 -2 19 -12 7 -9 11 -19 9 -21z
m-1035 9 c0 -5 -5 -10 -11 -10 -5 0 -7 5 -4 10 3 6 8 10 11 10 2 0 4 -4 4 -10z
m534 -4 c-10 -8 -21 -12 -24 -10 -5 6 21 24 34 24 6 0 1 -6 -10 -14z m-197
-18 c-3 -8 -6 -5 -6 6 -1 11 2 17 5 13 3 -3 4 -12 1 -19z m590 16 c-3 -3 -12
-4 -19 -1 -8 3 -5 6 6 6 11 1 17 -2 13 -5z m-531 -15 c3 -6 16 -8 28 -5 20 5
20 5 2 -9 -23 -17 -40 -20 -31 -5 3 6 2 10 -4 10 -5 0 -12 -6 -14 -12 -3 -7
-6 -3 -6 10 -1 23 13 30 25 11z m177 -4 c-3 -9 -8 -14 -10 -11 -3 3 -2 9 2 15
9 16 15 13 8 -4z m-438 -5 c3 -6 -1 -7 -9 -4 -18 7 -21 14 -7 14 6 0 13 -4 16
-10z m351 -2 c-10 -6 -22 -6 -26 -2 -5 5 3 10 18 11 22 1 24 0 8 -9z m104 -35
c-11 -17 -11 -17 -6 0 3 10 7 26 7 35 1 15 2 15 6 0 2 -10 -1 -25 -7 -35z m41
38 c-7 -5 -10 -14 -7 -20 4 -6 2 -11 -3 -11 -12 0 -15 23 -4 33 3 4 11 7 17 7
6 0 5 -4 -3 -9z m444 -11 c3 -6 -1 -7 -9 -4 -18 7 -21 14 -7 14 6 0 13 -4 16
-10z m-1015 -4 c0 -3 -4 -8 -10 -11 -5 -3 -10 -1 -10 4 0 6 5 11 10 11 6 0 10
-2 10 -4z m200 -18 c10 -6 7 -7 -10 -2 -14 3 -32 11 -40 16 -10 6 -7 7 10 2
14 -3 32 -11 40 -16z m-140 -4 c0 -2 -7 -4 -15 -4 -8 0 -15 4 -15 10 0 5 7 7
15 4 8 -4 15 -8 15 -10z m424 -15 c-8 -13 -51 -7 -51 8 0 6 4 10 8 7 4 -2 11
0 14 6 5 8 11 7 21 -1 7 -6 11 -15 8 -20z m-102 5 c13 -4 15 -11 8 -37 -5 -18
-14 -72 -20 -122 -18 -142 -16 -136 -46 -123 -21 10 -27 9 -35 -3 -7 -11 -13
-10 -29 11 -11 14 -20 35 -20 48 0 13 -4 21 -9 18 -10 -6 -25 24 -16 32 3 3 5
-1 5 -8 0 -7 2 -11 5 -8 6 6 -43 137 -57 153 -5 6 14 18 54 32 59 20 104 22
160 7z m-292 2 c0 -2 -7 -7 -16 -10 -8 -3 -12 -2 -9 4 6 10 25 14 25 6z m464
-11 c-4 -8 -9 -15 -13 -15 -21 0 -4 -52 35 -107 44 -61 45 -65 39 -117 -7 -52
-6 -55 59 -167 36 -62 66 -109 67 -104 3 50 -4 161 -12 163 -5 2 -9 33 -9 69
l0 65 103 -6 c56 -3 122 -8 146 -12 l44 -6 -7 -66 c-4 -39 -13 -70 -22 -76
-12 -9 -13 -26 -4 -116 18 -172 1 -240 -75 -303 -41 -35 -48 -37 -113 -37 -60
0 -119 12 -174 34 -13 6 -17 -2 -22 -51 -10 -87 -10 -106 -1 -259 7 -132 7
-145 -13 -185 -11 -24 -26 -71 -33 -104 -16 -78 -42 -104 -90 -92 -19 5 -39
14 -45 20 -7 7 -35 66 -63 132 -50 114 -52 122 -47 185 l6 65 -31 -95 c-17
-52 -46 -146 -66 -208 -27 -86 -38 -110 -48 -102 -18 15 -106 2 -123 -18 -7
-9 -11 -11 -7 -4 7 15 6 15 -155 -2 -147 -15 -491 -13 -605 4 -48 7 -87 18
-97 28 -14 15 -18 51 -24 257 -6 233 -8 242 -35 313 -16 40 -37 115 -46 168
-15 83 -15 107 -4 202 13 105 14 109 88 242 42 74 80 141 85 148 11 13 5 16
-27 12 -15 -1 -17 1 -8 12 5 7 27 36 48 63 20 28 38 51 40 53 1 1 81 -29 176
-69 114 -47 196 -87 238 -118 35 -25 72 -51 84 -58 11 -6 24 -19 29 -27 12
-21 52 -2 44 20 -3 8 -1 12 4 9 14 -9 4 -50 -11 -47 -15 2 30 -39 71 -66 14
-9 42 -29 62 -45 20 -16 41 -26 47 -22 7 3 10 1 9 -6 -2 -7 13 -19 32 -25 19
-7 31 -13 25 -13 -5 -1 3 -8 19 -16 34 -18 39 -19 30 -4 -4 8 0 8 15 0 11 -7
21 -15 21 -19 0 -5 16 -14 35 -21 27 -10 37 -20 46 -51 7 -22 16 -37 21 -34 5
3 7 13 4 21 -3 8 -1 11 4 8 14 -9 12 11 -2 35 -10 15 -10 22 0 32 17 17 15 28
-5 21 -16 -5 -15 -4 1 9 11 9 16 20 12 27 -4 6 -2 18 4 26 6 8 9 19 5 24 -4 7
0 8 10 5 14 -6 14 -8 0 -24 -20 -23 -19 -36 2 -19 17 13 17 12 0 -13 -10 -16
-14 -28 -9 -28 12 0 42 56 34 64 -4 4 0 6 8 4 9 -2 14 4 14 14 -1 10 3 15 9
11 6 -4 8 -1 5 8 -3 8 -9 23 -13 34 -5 15 -3 15 8 -3 11 -20 15 -21 26 -9 6 8
10 21 9 28 -2 7 2 13 7 14 19 1 36 16 33 30 -2 7 14 28 36 47 33 29 39 40 44
86 l5 52 -36 0 c-32 0 -64 -20 -52 -32 3 -3 -1 -11 -9 -17 -10 -8 -16 -9 -21
-1 -4 6 -1 9 7 8 7 -2 12 2 11 9 -2 6 9 21 23 32 15 12 23 25 18 32 -4 7 -3 9
4 5 12 -7 34 27 30 47 -3 14 23 57 34 57 4 0 5 -7 2 -15z m-530 -21 c-3 -16
-1 -23 6 -19 6 3 7 0 4 -10 -4 -9 -9 -14 -12 -11 -9 10 -12 66 -2 66 5 0 7
-12 4 -26z m843 20 c-3 -3 -12 -4 -19 -1 -8 3 -5 6 6 6 11 1 17 -2 13 -5z
m-470 -66 c-3 -8 -6 -5 -6 6 -1 11 2 17 5 13 3 -3 4 -12 1 -19z m70 -10 c-3
-8 -6 -5 -6 6 -1 11 2 17 5 13 3 -3 4 -12 1 -19z m489 -44 c-14 -25 -26 -52
-26 -58 0 -6 -12 -13 -27 -14 l-28 -2 35 32 c20 18 42 48 49 66 8 18 16 30 18
28 3 -3 -6 -26 -21 -52z m-539 24 c-3 -8 -6 -5 -6 6 -1 11 2 17 5 13 3 -3 4
-12 1 -19z m-732 -68 c10 -11 16 -20 13 -20 -3 0 -13 9 -23 20 -10 11 -16 20
-13 20 3 0 13 -9 23 -20z m115 -36 c0 -2 -9 0 -20 6 -19 10 -25 4 -21 -23 1
-4 -8 -3 -19 3 -11 6 -20 16 -19 23 0 9 2 9 6 0 2 -7 9 -13 14 -13 6 0 8 4 5
9 -9 14 16 20 37 9 9 -5 17 -11 17 -14z m-5 -35 c-4 -5 -12 -9 -18 -8 -9 0 -8
2 1 6 6 2 9 10 6 15 -4 7 -2 8 5 4 6 -4 9 -12 6 -17z m695 -26 c0 -3 -6 -3
-14 0 -7 3 -20 0 -27 -6 -11 -10 -11 -9 0 5 11 15 41 15 41 1z m-649 -26 c-10
-9 -11 -8 -5 6 3 10 9 15 12 12 3 -3 0 -11 -7 -18z m376 1 c-3 -8 -6 -5 -6 6
-1 11 2 17 5 13 3 -3 4 -12 1 -19z m110 -4 c-3 -3 -12 -4 -19 -1 -8 3 -5 6 6
6 11 1 17 -2 13 -5z m-32 -22 c-3 -3 -11 0 -18 7 -9 10 -8 11 6 5 10 -3 15 -9
12 -12z m-25 -12 c0 -5 -2 -10 -4 -10 -3 0 -8 5 -11 10 -3 6 -1 10 4 10 6 0
11 -4 11 -10z m-258 -29 c-2 -7 5 -22 14 -32 20 -23 9 -26 -13 -4 -8 9 -13 22
-10 30 4 9 -2 16 -16 19 -18 3 -18 4 3 2 15 -1 24 -7 22 -15z m-27 -39 c-3 -3
-16 5 -28 17 l-22 23 28 -17 c15 -10 25 -20 22 -23z m255 -1096 c0 -2 -11 -6
-25 -8 -13 -3 -22 -1 -19 3 5 9 44 13 44 5z m67 -2 c-3 -3 -12 -4 -19 -1 -8 3
-5 6 6 6 11 1 17 -2 13 -5z m117 0 c9 -3 13 -11 10 -16 -4 -6 -10 -5 -15 3 -4
7 -12 10 -16 5 -4 -4 0 -14 10 -21 17 -12 16 -13 -7 -11 -13 0 -23 3 -22 6 2
3 6 13 9 23 7 19 9 20 31 11z m-267 -20 c2 -7 -4 -14 -13 -18 -14 -6 -15 -4
-4 9 12 14 10 15 -13 10 -17 -5 -27 -3 -27 3 0 14 52 10 57 -4z m208 6 c3 -6
-1 -7 -9 -4 -18 7 -21 14 -7 14 6 0 13 -4 16 -10z m133 -76 c-1 -36 -4 -67 -7
-69 -6 -3 -7 48 -3 108 4 55 12 25 10 -39z m-491 50 c-3 -3 -12 -4 -19 -1 -8
3 -5 6 6 6 11 1 17 -2 13 -5z m453 -99 c0 -5 -5 -3 -10 5 -5 8 -10 20 -10 25
0 6 5 3 10 -5 5 -8 10 -19 10 -25z m-346 0 c-4 -8 -11 -12 -16 -9 -6 4 -5 10
3 15 19 12 19 11 13 -6z m343 -64 c0 -11 -5 -18 -9 -15 -4 3 -5 11 -1 19 7 21
12 19 10 -4z m-627 -1 c0 -5 -2 -10 -4 -10 -3 0 -8 5 -11 10 -3 6 -1 10 4 10
6 0 11 -4 11 -10z m640 -47 c-7 -21 -16 -42 -21 -47 -4 -5 -1 14 8 42 9 29 19
50 21 47 2 -2 -1 -21 -8 -42z m-532 -33 c2 -13 -2 -69 -9 -124 -10 -78 -14
-94 -20 -71 -9 39 -11 189 -3 210 9 22 28 13 32 -15z m-108 6 c0 -3 -4 -8 -10
-11 -5 -3 -10 -1 -10 4 0 6 5 11 10 11 6 0 10 -2 10 -4z m-10 -51 c0 -25 -15
-24 -16 1 -1 13 2 21 7 18 5 -3 9 -11 9 -19z m627 -7 c-3 -8 -6 -5 -6 6 -1 11
2 17 5 13 3 -3 4 -12 1 -19z m-25 -78 c-8 -27 -19 -47 -24 -44 -4 3 -3 13 2
22 6 9 14 29 20 45 17 47 19 29 2 -23z m-595 8 c-3 -8 -6 -5 -6 6 -1 11 2 17
5 13 3 -3 4 -12 1 -19z m-210 -30 c-3 -8 -6 -5 -6 6 -1 11 2 17 5 13 3 -3 4
-12 1 -19z m223 -23 c0 -8 -4 -17 -10 -20 -6 -4 -10 5 -10 20 0 15 4 24 10 20
6 -3 10 -12 10 -20z m532 -99 c-15 -41 -28 -73 -30 -71 -7 7 43 145 52 145 2
0 -8 -33 -22 -74z m-525 7 c-3 -10 -5 -2 -5 17 0 19 2 27 5 18 2 -10 2 -26 0
-35z m10 -75 c-2 -13 -4 -5 -4 17 -1 22 1 32 4 23 2 -10 2 -28 0 -40z m-23 7
c-4 -8 -11 -12 -17 -8 -8 5 -7 8 1 11 7 2 9 9 6 14 -4 7 -2 8 4 4 6 -4 9 -13
6 -21z m497 -52 c-12 -20 -14 -14 -5 12 4 9 9 14 11 11 3 -2 0 -13 -6 -23z
m99 -32 c0 -5 -10 -7 -22 -3 -14 3 -19 2 -14 -6 4 -7 1 -12 -9 -12 -9 0 -14 4
-11 9 4 5 0 12 -6 14 -7 3 4 6 25 6 20 1 37 -3 37 -8z m-599 -28 c-12 -20 -14
-14 -5 12 4 9 9 14 11 11 3 -2 0 -13 -6 -23z m639 17 c8 -5 11 -10 5 -10 -5 0
-17 5 -25 10 -8 5 -10 10 -5 10 6 0 17 -5 25 -10z m90 -83 c0 -6 -16 6 -35 26
-19 20 -35 39 -35 42 0 3 16 -9 35 -26 19 -18 35 -37 35 -42z m-253 47 c-3 -3
-12 -4 -19 -1 -8 3 -5 6 6 6 11 1 17 -2 13 -5z m-570 -36 c-3 -8 -6 -5 -6 6
-1 11 2 17 5 13 3 -3 4 -12 1 -19z m54 -40 c-11 -26 -25 -44 -37 -46 -18 -3
-18 -2 -1 8 9 6 24 27 32 46 8 18 16 34 19 34 3 0 -3 -19 -13 -42z m-204 -20
c-3 -8 -6 -5 -6 6 -1 11 2 17 5 13 3 -3 4 -12 1 -19z m980 -10 c-3 -8 -6 -5
-6 6 -1 11 2 17 5 13 3 -3 4 -12 1 -19z m-952 -18 c3 -5 -1 -10 -10 -10 -9 0
-13 5 -10 10 3 6 8 10 10 10 2 0 7 -4 10 -10z m915 0 c0 -5 -5 -10 -11 -10 -5
0 -7 5 -4 10 3 6 8 10 11 10 2 0 4 -4 4 -10z m-842 -7 c-10 -2 -28 -2 -40 0
-13 2 -5 4 17 4 22 1 32 -1 23 -4z m700 0 c-27 -2 -69 -2 -95 0 -27 2 -5 3 47
3 52 0 74 -1 48 -3z"/>
<path d="M2061 3517 l-2 -76 43 -6 c24 -3 83 -7 133 -8 78 -2 90 0 93 16 3 15
-6 17 -90 17 -51 0 -99 4 -106 9 -23 14 12 21 114 21 91 0 94 1 94 23 0 21 -2
22 -88 19 -71 -3 -91 0 -101 12 -12 14 -3 16 88 16 61 0 101 4 101 10 0 6 -31
10 -72 10 -40 0 -103 3 -139 6 l-66 7 -2 -76z m69 8 c0 -21 -30 -31 -40 -14
-11 17 -3 29 21 29 10 0 19 -7 19 -15z"/>
<path d="M1842 2963 c-18 -7 -34 -51 -27 -73 3 -9 17 -22 31 -29 51 -23 85 10
65 62 -8 21 -40 49 -53 46 -2 0 -9 -3 -16 -6z"/>
<path d="M2290 2870 c0 -5 5 -10 10 -10 6 0 10 5 10 10 0 6 -4 10 -10 10 -5 0
-10 -4 -10 -10z"/>
<path d="M2338 2433 c7 -3 16 -2 19 1 4 3 -2 6 -13 5 -11 0 -14 -3 -6 -6z"/>
<path d="M2164 1635 c3 -22 8 -84 11 -138 7 -106 23 -176 24 -102 1 52 -25
265 -34 273 -3 3 -4 -12 -1 -33z"/>
<path d="M1376 1383 c-56 -3 -72 -8 -86 -26 -16 -20 -17 -22 -1 -35 14 -12 14
-12 -4 -3 -28 13 -46 1 -89 -59 l-36 -49 43 -25 c23 -13 87 -49 142 -81 l100
-57 58 13 c32 6 68 20 80 29 18 15 19 20 8 34 -7 9 -19 16 -26 16 -6 0 -20 9
-30 20 -18 20 -8 29 11 11 17 -18 103 -16 121 2 16 15 15 18 -1 36 -10 11 -25
17 -34 14 -10 -4 -13 -2 -8 5 4 7 2 12 -3 12 -6 0 -11 -4 -11 -10 0 -5 -5 -10
-11 -10 -5 0 -8 4 -4 9 3 5 0 13 -5 16 -8 5 -7 12 3 23 8 10 17 24 20 33 7 21
-21 62 -36 53 -7 -4 -9 -4 -5 1 4 4 3 14 -3 22 -11 13 -34 14 -193 6z m-54
-25 c-8 -8 -9 -15 0 -25 8 -11 7 -12 -6 -7 -18 7 -18 7 -10 28 3 9 11 16 17
16 8 0 7 -4 -1 -12z m236 -112 c-7 -8 -15 -12 -17 -11 -5 6 10 25 20 25 5 0 4
-6 -3 -14z"/>
<path d="M2697 3083 c-9 -8 -9 -249 -1 -281 l6 -22 262 2 261 3 3 28 3 27
-195 0 c-107 0 -197 4 -200 8 -3 5 12 19 33 30 35 20 53 22 200 22 l161 0 0
40 0 40 -170 0 c-152 0 -173 2 -202 20 -18 11 -32 22 -30 26 1 3 91 6 200 7
l197 2 0 25 0 25 -261 3 c-143 1 -263 -1 -267 -5z m122 -130 c2 -2 -1 -8 -7
-15 -6 -7 -12 -17 -14 -22 -5 -14 -48 -14 -48 0 0 7 -3 19 -6 28 -4 11 -1 16
10 16 9 0 16 5 16 10 0 9 10 5 49 -17z"/>
</g>
</svg>
